<svg width="256" height="256" viewBox="0 0 100 100" xmlns="http://www.w3.org/2000/svg" fill-rule="evenodd" clip-rule="evenodd" stroke-linejoin="round" stroke-miterlimit="2">
  <rect x="0" y="0" width="100" height="100" fill="#1976D2" rx="20"/>
  <g transform="translate(5, 5) scale(0.9)">
    <path d="M80.934 30.638H22.181c-1.89 0-3.421 1.532-3.421 3.421v28.882c0 1.89 1.531 3.421 3.421 3.421h58.753c1.89 0 3.421-1.531 3.421-3.421V34.059c0-1.889-1.531-3.421-3.421-3.421z" fill="#FFC107"/>
    <path d="M22.181 37.48h58.753v3.421H22.181z" fill="#FFA000"/>
    <path d="M79.239 52.882H23.876V42.638h55.363v10.244z" fill="#FFF"/>
    <path d="M79.239 49.461H23.876v-3.421h55.363v3.421zm0-6.842H23.876v-3.421h55.363v3.421z" fill="#BDBDBD"/>
    <circle cx="30.638" cy="66.362" r="6.842" fill="#424242"/>
    <circle cx="30.638" cy="66.362" r="3.421" fill="#E0E0E0"/>
    <circle cx="72.479" cy="66.362" r="6.842" fill="#424242"/>
    <circle cx="72.479" cy="66.362" r="3.421" fill="#E0E0E0"/>
    <path d="M20.479 37.48h-5.132a1.71 1.71 0 0 0-1.71 1.71v5.132c0 .945.765 1.71 1.71 1.71h5.132V37.48z" fill="#FFC107"/>
  </g>
</svg>
